<?xml version="1.0" encoding="UTF-8"?>
<svg width="800px" height="600px" viewBox="0 0 800 600" version="1.1" xmlns="http://www.w3.org/2000/svg" xmlns:xlink="http://www.w3.org/1999/xlink">
    <title>AWS Multi-Region Deployment</title>
    <defs>
        <linearGradient x1="0%" y1="0%" x2="100%" y2="100%" id="gradientBackground">
            <stop stop-color="#232F3E" offset="0%"></stop>
            <stop stop-color="#0D1117" offset="100%"></stop>
        </linearGradient>
        <linearGradient x1="0%" y1="0%" x2="100%" y2="100%" id="awsOrange">
            <stop stop-color="#FF9900" offset="0%"></stop>
            <stop stop-color="#FFC400" offset="100%"></stop>
        </linearGradient>
    </defs>
    <g id="AWSMultiRegion" stroke="none" stroke-width="1" fill="none" fill-rule="evenodd">
        <!-- Background -->
        <rect id="Background" fill="url(#gradientBackground)" x="0" y="0" width="800" height="600"></rect>
        
        <!-- AWS Global Network -->
        <ellipse id="GlobalNetwork" stroke="#4B5563" stroke-width="2" cx="400" cy="300" rx="370" ry="250" stroke-dasharray="10,5" opacity="0.4"></ellipse>
        
        <!-- Region 1 (US East) -->
        <g id="Region1" transform="translate(200, 150)">
            <rect id="RegionBorder1" stroke="#FF9900" stroke-width="2" x="0" y="0" width="200" height="300" rx="10" opacity="0.6"></rect>
            <text id="RegionLabel1" font-family="Arial, sans-serif" font-size="14" font-weight="bold" fill="#FFFFFF" x="100" y="30" text-anchor="middle">US-EAST-1</text>
            
            <!-- EC2 Instances -->
            <rect fill="#FFFFFF" x="40" y="60" width="120" height="50" rx="4" opacity="0.7"></rect>
            <text font-family="Arial, sans-serif" font-size="12" fill="#232F3E" x="100" y="90" text-anchor="middle">EC2 Instances</text>
            
            <!-- RDS Database -->
            <circle fill="#4285F4" cx="100" cy="150" r="30" opacity="0.7"></circle>
            <text font-family="Arial, sans-serif" font-size="12" fill="#FFFFFF" x="100" y="155" text-anchor="middle">RDS</text>
            
            <!-- S3 Bucket -->
            <path d="M60,220 L100,190 L140,220 L140,260 L60,260 Z" fill="#FF9900" opacity="0.7"></path>
            <text font-family="Arial, sans-serif" font-size="12" fill="#FFFFFF" x="100" y="240" text-anchor="middle">S3</text>
        </g>
        
        <!-- Region 2 (EU West) -->
        <g id="Region2" transform="translate(500, 150)">
            <rect id="RegionBorder2" stroke="#FF9900" stroke-width="2" x="0" y="0" width="200" height="300" rx="10" opacity="0.6"></rect>
            <text id="RegionLabel2" font-family="Arial, sans-serif" font-size="14" font-weight="bold" fill="#FFFFFF" x="100" y="30" text-anchor="middle">EU-WEST-1</text>
            
            <!-- EC2 Instances -->
            <rect fill="#FFFFFF" x="40" y="60" width="120" height="50" rx="4" opacity="0.7"></rect>
            <text font-family="Arial, sans-serif" font-size="12" fill="#232F3E" x="100" y="90" text-anchor="middle">EC2 Instances</text>
            
            <!-- RDS Database -->
            <circle fill="#4285F4" cx="100" cy="150" r="30" opacity="0.7"></circle>
            <text font-family="Arial, sans-serif" font-size="12" fill="#FFFFFF" x="100" y="155" text-anchor="middle">RDS</text>
            
            <!-- S3 Bucket -->
            <path d="M60,220 L100,190 L140,220 L140,260 L60,260 Z" fill="#FF9900" opacity="0.7"></path>
            <text font-family="Arial, sans-serif" font-size="12" fill="#FFFFFF" x="100" y="240" text-anchor="middle">S3</text>
        </g>
        
        <!-- Connections between regions -->
        <path d="M400,300 C420,280 430,275 440,275 C450,275 450,280 460,280 C470,280 480,270 500,270" stroke="#FF9900" stroke-width="2" stroke-dasharray="5,3" opacity="0.8"></path>
        <path d="M400,330 C420,330 430,320 440,320 C450,320 450,315 460,315 C470,315 480,330 500,330" stroke="#FF9900" stroke-width="2" stroke-dasharray="5,3" opacity="0.8"></path>
        
        <!-- CloudFront Distribution -->
        <g id="CloudFront" transform="translate(400, 100)">
            <circle fill="#FFFFFF" cx="0" cy="0" r="40" opacity="0.2"></circle>
            <circle fill="#FF9900" cx="0" cy="0" r="25" opacity="0.7"></circle>
            <text font-family="Arial, sans-serif" font-size="12" font-weight="bold" fill="#FFFFFF" x="0" y="5" text-anchor="middle">CloudFront</text>
        </g>
        
        <!-- Route 53 -->
        <g id="Route53" transform="translate(400, 480)">
            <rect fill="#FF9900" x="-90" y="-30" width="180" height="60" rx="8" opacity="0.7"></rect>
            <text font-family="Arial, sans-serif" font-size="16" font-weight="bold" fill="#FFFFFF" x="0" y="8" text-anchor="middle">Route 53</text>
        </g>
        
        <!-- Connection Lines to CloudFront -->
        <path d="M400,140 L303,150" stroke="#FFFFFF" stroke-width="1.5" opacity="0.4"></path>
        <path d="M400,140 L500,150" stroke="#FFFFFF" stroke-width="1.5" opacity="0.4"></path>
        
        <!-- Connection Lines to Route 53 -->
        <path d="M350,450 L300,450" stroke="#FFFFFF" stroke-width="1.5" opacity="0.4"></path>
        <path d="M450,450 L500,450" stroke="#FFFFFF" stroke-width="1.5" opacity="0.4"></path>
        
        <!-- Text -->
        <text id="Title" font-family="Arial, sans-serif" font-size="28" font-weight="bold" fill="#FFFFFF" text-anchor="middle" x="400" y="40">
            AWS Multi-Region Deployment
        </text>
    </g>
</svg>