<?xml version="1.0" encoding="UTF-8"?>
<svg width="800px" height="600px" viewBox="0 0 800 600" version="1.1" xmlns="http://www.w3.org/2000/svg" xmlns:xlink="http://www.w3.org/1999/xlink">
    <title>HomeDecide</title>
    <defs>
        <linearGradient id="bgGradient" x1="0%" y1="0%" x2="100%" y2="100%">
            <stop offset="0%" stop-color="#134E4A"/>
            <stop offset="100%" stop-color="#0F766E"/>
        </linearGradient>
        <linearGradient id="chartGradient" x1="0%" y1="0%" x2="0%" y2="100%">
            <stop offset="0%" stop-color="#14B8A6" stop-opacity="0.8"/>
            <stop offset="100%" stop-color="#14B8A6" stop-opacity="0.1"/>
        </linearGradient>
        <linearGradient id="purpleGradient" x1="0%" y1="0%" x2="0%" y2="100%">
            <stop offset="0%" stop-color="#A855F7" stop-opacity="0.8"/>
            <stop offset="100%" stop-color="#A855F7" stop-opacity="0.1"/>
        </linearGradient>
        <filter id="shadow" x="-20%" y="-20%" width="140%" height="140%">
            <feGaussianBlur in="SourceAlpha" stdDeviation="3"/>
            <feOffset dx="2" dy="2" result="offsetblur"/>
            <feComponentTransfer>
                <feFuncA type="linear" slope="0.2"/>
            </feComponentTransfer>
            <feMerge> 
                <feMergeNode/>
                <feMergeNode in="SourceGraphic"/> 
            </feMerge>
        </filter>
    </defs>
    
    <!-- Background -->
    <rect width="800" height="600" fill="url(#bgGradient)"/>
    
    <!-- Grid Pattern -->
    <g id="grid" stroke="#2DD4BF" stroke-width="0.5" opacity="0.1">
        <line x1="0" y1="50" x2="800" y2="50"/>
        <line x1="0" y1="100" x2="800" y2="100"/>
        <line x1="0" y1="150" x2="800" y2="150"/>
        <line x1="0" y1="200" x2="800" y2="200"/>
        <line x1="0" y1="250" x2="800" y2="250"/>
        <line x1="0" y1="300" x2="800" y2="300"/>
        <line x1="0" y1="350" x2="800" y2="350"/>
        <line x1="0" y1="400" x2="800" y2="400"/>
        <line x1="0" y1="450" x2="800" y2="450"/>
        <line x1="0" y1="500" x2="800" y2="500"/>
        <line x1="0" y1="550" x2="800" y2="550"/>
        
        <line x1="50" y1="0" x2="50" y2="600"/>
        <line x1="100" y1="0" x2="100" y2="600"/>
        <line x1="150" y1="0" x2="150" y2="600"/>
        <line x1="200" y1="0" x2="200" y2="600"/>
        <line x1="250" y1="0" x2="250" y2="600"/>
        <line x1="300" y1="0" x2="300" y2="600"/>
        <line x1="350" y1="0" x2="350" y2="600"/>
        <line x1="400" y1="0" x2="400" y2="600"/>
        <line x1="450" y1="0" x2="450" y2="600"/>
        <line x1="500" y1="0" x2="500" y2="600"/>
        <line x1="550" y1="0" x2="550" y2="600"/>
        <line x1="600" y1="0" x2="600" y2="600"/>
        <line x1="650" y1="0" x2="650" y2="600"/>
        <line x1="700" y1="0" x2="700" y2="600"/>
        <line x1="750" y1="0" x2="750" y2="600"/>
    </g>
    
    <!-- House Icon -->
    <g id="house" transform="translate(200, 250)" filter="url(#shadow)">
        <path d="M0,-80 L100,-10 L100,70 L-100,70 L-100,-10 Z" fill="#0F766E"/>
        <path d="M0,-80 L100,-10 L-100,-10 Z" fill="#134E4A"/>
        <rect x="-30" y="20" width="60" height="50" fill="#115E59"/>
        <rect x="-75" y="20" width="30" height="30" fill="#5EEAD4" opacity="0.3"/>
        <rect x="45" y="20" width="30" height="30" fill="#5EEAD4" opacity="0.3"/>
        
        <!-- Animate House Pulse -->
        <circle cx="0" cy="0" r="110" fill="none" stroke="#2DD4BF" stroke-width="2" opacity="0.3">
            <animate attributeName="r" values="110;120;110" dur="4s" repeatCount="indefinite"/>
            <animate attributeName="opacity" values="0.3;0.1;0.3" dur="4s" repeatCount="indefinite"/>
        </circle>
    </g>
    
    <!-- Charts -->
    <g id="chart1" transform="translate(500, 200)">
        <!-- Bar Chart -->
        <g>
            <rect x="-80" y="-80" width="160" height="160" rx="5" fill="#115E59" opacity="0.7"/>
            
            <rect x="-60" y="40" width="20" height="-30" fill="#14B8A6">
                <animate attributeName="height" values="-30;-50;-30" dur="3s" repeatCount="indefinite"/>
            </rect>
            <rect x="-30" y="40" width="20" height="-50" fill="#14B8A6">
                <animate attributeName="height" values="-50;-40;-50" dur="4s" repeatCount="indefinite"/>
            </rect>
            <rect x="0" y="40" width="20" height="-70" fill="#14B8A6">
                <animate attributeName="height" values="-70;-60;-70" dur="3.5s" repeatCount="indefinite"/>
            </rect>
            <rect x="30" y="40" width="20" height="-40" fill="#14B8A6">
                <animate attributeName="height" values="-40;-60;-40" dur="2.5s" repeatCount="indefinite"/>
            </rect>
            
            <line x1="-70" y1="50" x2="70" y2="50" stroke="#5EEAD4" opacity="0.5" stroke-width="1"/>
            <line x1="-70" y1="20" x2="70" y2="20" stroke="#5EEAD4" opacity="0.3" stroke-width="1"/>
            <line x1="-70" y1="-10" x2="70" y2="-10" stroke="#5EEAD4" opacity="0.3" stroke-width="1"/>
            <line x1="-70" y1="-40" x2="70" y2="-40" stroke="#5EEAD4" opacity="0.3" stroke-width="1"/>
        </g>
    </g>
    
    <g id="chart2" transform="translate(500, 400)">
        <!-- Line Chart -->
        <g>
            <rect x="-80" y="-80" width="160" height="160" rx="5" fill="#115E59" opacity="0.7"/>
            
            <path d="M-60,20 C-40,-20 -20,40 0,10 C20,-10 40,30 60,0" fill="none" stroke="#A855F7" stroke-width="2">
                <animate attributeName="d" values="M-60,20 C-40,-20 -20,40 0,10 C20,-10 40,30 60,0;M-60,10 C-40,-30 -20,30 0,0 C20,-20 40,20 60,-10;M-60,20 C-40,-20 -20,40 0,10 C20,-10 40,30 60,0" dur="10s" repeatCount="indefinite"/>
            </path>
            
            <path d="M-60,20 C-40,-20 -20,40 0,10 C20,-10 40,30 60,0" fill="url(#purpleGradient)" stroke="none" opacity="0.3">
                <animate attributeName="d" values="M-60,20 C-40,-20 -20,40 0,10 C20,-10 40,30 60,0 L60,60 L-60,60 Z;M-60,10 C-40,-30 -20,30 0,0 C20,-20 40,20 60,-10 L60,60 L-60,60 Z;M-60,20 C-40,-20 -20,40 0,10 C20,-10 40,30 60,0 L60,60 L-60,60 Z" dur="10s" repeatCount="indefinite"/>
            </path>
            
            <line x1="-70" y1="50" x2="70" y2="50" stroke="#5EEAD4" opacity="0.5" stroke-width="1"/>
            <line x1="-70" y1="20" x2="70" y2="20" stroke="#5EEAD4" opacity="0.3" stroke-width="1"/>
            <line x1="-70" y1="-10" x2="70" y2="-10" stroke="#5EEAD4" opacity="0.3" stroke-width="1"/>
            <line x1="-70" y1="-40" x2="70" y2="-40" stroke="#5EEAD4" opacity="0.3" stroke-width="1"/>
        </g>
    </g>
    
    <!-- Data Flow Animation -->
    <g id="dataFlow">
        <g id="flowHouseToChart1">
            <path d="M250,250 Q375,200 420,200" stroke="#2DD4BF" stroke-width="2" fill="none" stroke-dasharray="5,5" opacity="0.5"/>
            
            <circle cx="250" cy="250" r="3" fill="white">
                <animate attributeName="opacity" values="0;1;0" dur="3s" repeatCount="indefinite"/>
                <animateMotion
                    path="M0,0 Q125,-50 170,-50"
                    dur="3s"
                    repeatCount="indefinite"/>
            </circle>
        </g>
        
        <g id="flowHouseToChart2">
            <path d="M250,250 Q375,325 420,400" stroke="#2DD4BF" stroke-width="2" fill="none" stroke-dasharray="5,5" opacity="0.5"/>
            
            <circle cx="250" cy="250" r="3" fill="white">
                <animate attributeName="opacity" values="0;1;0" dur="4s" repeatCount="indefinite"/>
                <animateMotion
                    path="M0,0 Q125,75 170,150"
                    dur="4s"
                    repeatCount="indefinite"/>
            </circle>
        </g>
        
        <g id="flowChart1ToChart2">
            <path d="M500,200 L500,320" stroke="#A855F7" stroke-width="2" fill="none" stroke-dasharray="5,5" opacity="0.5"/>
            
            <circle cx="500" cy="200" r="3" fill="white">
                <animate attributeName="opacity" values="0;1;0" dur="2s" repeatCount="indefinite"/>
                <animateMotion
                    path="M0,0 L0,120"
                    dur="2s"
                    repeatCount="indefinite"/>
            </circle>
        </g>
    </g>
    
    <!-- Dollar Signs Animation -->
    <g id="dollars" opacity="0.7">
        <text x="150" y="180" font-family="Arial, sans-serif" font-size="18" fill="#5EEAD4" filter="url(#shadow)">$</text>
        <text x="280" y="200" font-family="Arial, sans-serif" font-size="18" fill="#5EEAD4" filter="url(#shadow)">$</text>
        <text x="400" y="250" font-family="Arial, sans-serif" font-size="18" fill="#5EEAD4" filter="url(#shadow)">$</text>
        <text x="550" y="300" font-family="Arial, sans-serif" font-size="18" fill="#5EEAD4" filter="url(#shadow)">$</text>
        
        <g opacity="0.5">
            <text x="150" y="180" font-family="Arial, sans-serif" font-size="18" fill="#5EEAD4">
                <animate attributeName="y" values="180;170;180" dur="3s" repeatCount="indefinite"/>
                <animate attributeName="opacity" values="0.5;0.8;0.5" dur="3s" repeatCount="indefinite"/>
            </text>
            <text x="280" y="200" font-family="Arial, sans-serif" font-size="18" fill="#5EEAD4">
                <animate attributeName="y" values="200;190;200" dur="4s" repeatCount="indefinite"/>
                <animate attributeName="opacity" values="0.5;0.8;0.5" dur="4s" repeatCount="indefinite"/>
            </text>
            <text x="400" y="250" font-family="Arial, sans-serif" font-size="18" fill="#5EEAD4">
                <animate attributeName="y" values="250;240;250" dur="3.5s" repeatCount="indefinite"/>
                <animate attributeName="opacity" values="0.5;0.8;0.5" dur="3.5s" repeatCount="indefinite"/>
            </text>
            <text x="550" y="300" font-family="Arial, sans-serif" font-size="18" fill="#5EEAD4">
                <animate attributeName="y" values="300;290;300" dur="2.5s" repeatCount="indefinite"/>
                <animate attributeName="opacity" values="0.5;0.8;0.5" dur="2.5s" repeatCount="indefinite"/>
            </text>
        </g>
    </g>
    
    <!-- Title -->
    <text x="400" y="550" font-family="Arial, sans-serif" font-size="28" font-weight="bold" fill="white" text-anchor="middle">
        HomeDecide
    </text>
</svg>